# xmcd
#
# Track frame offsets:
#	150
#	17518
#	36155
#	54825
#	71153
#	88451
#	103917
#	119192
#	135577
#	150576
#
# Disc length: 2226 seconds
#
# Revision: 6
# Processed by: cddbd v1.5.2PL0 Copyright (c) Steve Scherf et al.
# Submitted via: Jack! The Knife 20 Magnifico
#
DISCID=8b08b00a
DTITLE=Nek - Filippo Neviani
DYEAR=2013
DGENRE=Pop
TTITLE0=Hey Dio
TTITLE1=Congiunzione Astrale
TTITLE2=Dentro L'anima
TTITLE3=La Metà Di Niente
TTITLE4=Soltanto Te
TTITLE5=Io No Mai
TTITLE6=Uno Come Me
TTITLE7=Verrà Il Tempo
TTITLE8=Dammi Di Più
TTITLE9=Il Mondo Tra Le Mani
EXTD=Nek, Alfredo Cerruti, Dado Parisini
EXTT0=Nek
EXTT1=Nek
EXTT2=Nek
EXTT3=Nek
EXTT4=Nek
EXTT5=Nek
EXTT6=Nek
EXTT7=Nek
EXTT8=Amati, Nek
EXTT9=Nek
PLAYORDER=
